:FULLY-SPECIFIED
:FORCE-ALL-JOINTS-BE-3DOF
:DEGREES
645
root 5.57613 16.4076 -2.75668 16.0034 12.6997 -0.0667672
lfemur -15.4191 25.1563 -30.2411
ltibia 30.7374 -0 0
lfoot -40.888 17.2802 1.41329
ltoes 23.2419 -0 0
rfemur -62.7984 -29.7566 34.8603
rtibia 69.6364 -0 0
rfoot -4.30346 1.08947 0.575747
rtoes -0.798152 0 0
lowerback -0.434905 -3.87147 -5.73328
upperback -1.7441 -5.1911 -0.0558675
thorax -1.03362 -2.53101 3.13007
lowerneck -9.9175 -7.48172 -0.322683
upperneck 5.33652 -10.5526 6.68061
head 3.81285 -4.91778 1.57167
lclavicle -3.79679e-014 -7.95139e-015 0
lhumerus -43.2782 -67.1193 126.443
lradius 70.1521 -0 0
lwrist 23.6313 0 0
lhand -5.25389 3.14067 0.0125217
lfingers 7.12502 -0 0
lthumb 20.5499 32.081 0.012945
rclavicle -3.79679e-014 -7.95139e-015 0
rhumerus -31.6851 -3.6993 -78.0422
rradius 66.038 -0 0
rwrist -23.7109 0 0
rhand -29.7937 -44.8024 -0.0440335
rfingers 7.12502 -0 0
rthumb -3.11827 -74.7603 -0.0425044
646
root 5.56838 16.3879 -2.71128 16.3529 11.774 0.0427859
lfemur -15.5898 25.0858 -30.2229
ltibia 31.2285 -0 0
lfoot -40.6328 16.607 1.29144
ltoes 22.7332 -0 0
rfemur -63.0363 -29.9779 35.2574
rtibia 69.4202 -0 0
rfoot -4.92276 0.164857 0.491707
rtoes -0.104125 0 0
lowerback -0.480528 -3.87938 -5.80416
upperback -1.75315 -5.19985 -0.124771
thorax -1.01856 -2.5349 3.09589
lowerneck -9.88288 -7.48297 -0.381097
upperneck 4.93057 -10.529 6.85026
head 3.70317 -4.91593 1.64639
lclavicle -3.79679e-014 -7.95139e-015 0
lhumerus -44.0955 -67.7285 127.274
lradius 70.535 -0 0
lwrist 23.8266 0 0
lhand -5.12385 3.29133 0.00741956
lfingers 7.12502 -0 0
lthumb 20.6749 32.2185 0.00828982
rclavicle -3.79679e-014 -7.95139e-015 0
rhumerus -33.4551 -4.0133 -78.1046
rradius 64.8363 -0 0
rwrist -22.3256 0 0
rhand -29.7301 -45.4193 -0.0368395
rfingers 7.12502 -0 0
rthumb -3.0568 -75.3778 -0.0355602
647
root 5.56062 16.3682 -2.66588 16.6738 10.8332 0.137417
lfemur -15.7941 25.0135 -30.1536
ltibia 31.8387 -0 0
lfoot -40.2929 15.9203 1.14304
ltoes 22.2492 -0 0
rfemur -63.2006 -30.1542 35.5992
rtibia 69.1962 -0 0
rfoot -5.53072 -0.702252 0.404693
rtoes 0.546326 -0 0
lowerback -0.519082 -3.89162 -5.86069
upperback -1.76201 -5.2147 -0.188283
thorax -1.00781 -2.54188 3.06013
lowerneck -9.84868 -7.47669 -0.433366
upperneck 4.54957 -10.4955 7.0005
head 3.59893 -4.9093 1.71392
lclavicle -3.79679e-014 -7.95139e-015 0
lhumerus -44.7568 -68.3235 127.914
lradius 70.9316 -0 0
lwrist 24.021 0 0
lhand -5.01924 3.42329 0.00310678
lfingers 7.12502 -0 0
lthumb 20.7754 32.3394 0.00429262
rclavicle -3.79679e-014 -7.95139e-015 0
rhumerus -35.1259 -4.32055 -78.0822
rradius 63.7485 -0 0
rwrist -21.0301 0 0
rhand -29.6671 -45.9969 -0.0295953
rfingers 7.12502 -0 0
rthumb -2.99593 -75.956 -0.0285673
648
root 5.55286 16.3485 -2.62048 16.9641 9.87464 0.21654
lfemur -16.0344 24.9405 -30.0298
ltibia 32.5754 -0 0
lfoot -39.8625 15.2209 0.967821
ltoes 21.7945 -0 0
rfemur -63.2846 -30.2828 35.8802
rtibia 68.9651 -0 0
rfoot -6.12572 -1.50514 0.316712
rtoes 1.14873 -0 0
lowerback -0.550145 -3.90864 -5.90157
upperback -1.77086 -5.23631 -0.245896
thorax -1.00179 -2.55227 3.02262
lowerneck -9.81525 -7.46197 -0.478658
upperneck 4.19632 -10.4513 7.12922
head 3.50079 -4.89735 1.77348
lclavicle -3.79679e-014 -7.95139e-015 0
lhumerus -45.231 -68.9061 128.331
lradius 71.3427 -0 0
lwrist 24.2139 0 0
lhand -4.9417 3.53493 -0.000206658
lfingers 7.12502 -0 0
lthumb 20.8499 32.4424 0.00113741
rclavicle -3.79679e-014 -7.95139e-015 0
rhumerus -36.6878 -4.61701 -77.9698
rradius 62.7837 -0 0
rwrist -19.8343 0 0
rhand -29.6051 -46.5315 -0.0224995
rfingers 7.12502 -0 0
rthumb -2.93605 -76.4914 -0.0217175
649
root 5.5451 16.3287 -2.57509 17.2219 8.89592 0.27964
lfemur -16.313 24.8684 -29.8481
ltibia 33.4461 -0 0
lfoot -39.3354 14.5092 0.765696
ltoes 21.3736 -0 0
rfemur -63.2817 -30.361 36.0952
rtibia 68.7277 -0 0
rfoot -6.70617 -2.23714 0.229919
rtoes 1.69862 -0 0
lowerback -0.573295 -3.93088 -5.92547
upperback -1.77982 -5.26533 -0.297101
thorax -1.00091 -2.56639 2.98324
lowerneck -9.78296 -7.43793 -0.51614
upperneck 3.87364 -10.3958 7.23435
head 3.40942 -4.87956 1.82427
lclavicle -3.79679e-014 -7.95139e-015 0
lhumerus -45.4847 -69.4775 128.489
lradius 71.7693 -0 0
lwrist 24.4047 0 0
lhand -4.89286 3.62461 -0.00232738
lfingers 7.12502 -0 0
lthumb 20.8968 32.5258 -0.00100572
rclavicle -3.79679e-014 -7.95139e-015 0
rhumerus -38.1316 -4.89882 -77.7623
rradius 61.9508 -0 0
rwrist -18.7484 0 0
rhand -29.5445 -47.0197 -0.0157642
rfingers 7.12502 -0 0
rthumb -2.87754 -76.9802 -0.0152157
650
root 5.53735 16.309 -2.52969 17.4452 7.89453 0.326276
lfemur -16.6323 24.7987 -29.6049
ltibia 34.458 -0 0
lfoot -38.7057 13.7852 0.536777
ltoes 20.9911 -0 0
rfemur -63.1858 -30.386 36.2394
rtibia 68.4844 -0 0
rfoot -7.27058 -2.89161 0.146596
rtoes 2.19152 -0 0
lowerback -0.588115 -3.95878 -5.93108
upperback -1.78906 -5.30239 -0.341388
thorax -1.0056 -2.58457 2.94183
lowerneck -9.75216 -7.40367 -0.544979
upperneck 3.58431 -10.3282 7.31379
head 3.32547 -4.8554 1.86551
lclavicle -3.79679e-014 -7.95139e-015 0
lhumerus -45.4809 -70.0379 128.349
lradius 72.2122 -0 0
lwrist 24.5926 0 0
lhand -4.87438 3.6907 -0.00308569
lfingers 7.12502 -0 0
lthumb 20.9144 32.5883 -0.00198662
rclavicle -3.79679e-014 -7.95139e-015 0
rhumerus -39.4475 -5.16246 -77.455
rradius 61.2589 -0 0
rwrist -17.7823 0 0
rhand -29.4857 -47.4578 -0.00961292
rfingers 7.12502 -0 0
rthumb -2.8208 -77.4189 -0.00927786
651
root 5.52959 16.2893 -2.48429 17.632 6.86794 0.356093
lfemur -16.9944 24.7332 -29.2971
ltibia 35.6185 -0 0
lfoot -37.9673 13.0491 0.281374
ltoes 20.6515 -0 0
rfemur -62.9908 -30.3546 36.3081
rtibia 68.236 -0 0
rfoot -7.81745 -3.46195 0.0691311
rtoes 2.62297 -0 0
lowerback -0.594197 -3.99279 -5.91709
upperback -1.79872 -5.34815 -0.378246
thorax -1.01626 -2.60714 2.89826
lowerneck -9.72322 -7.3583 -0.564344
upperneck 3.33109 -10.2477 7.3655
head 3.2496 -4.82436 1.89642
lclavicle -3.79679e-014 -7.95139e-015 0
lhumerus -45.1795 -70.5861 127.871
lradius 72.6723 -0 0
lwrist 24.7771 0 0
lhand -4.8879 3.73156 -0.00234305
lfingers 7.12502 -0 0
lthumb 20.9013 32.6284 -0.00168154
rclavicle -3.79679e-014 -7.95139e-015 0
rhumerus -40.626 -5.40491 -77.043
rradius 60.717 -0 0
rwrist -16.946 0 0
rhand -29.4292 -47.8424 -0.00427836
rfingers 7.12502 -0 0
rthumb -2.7662 -77.8041 -0.00412883
652
root 5.52183 16.2696 -2.43889 17.7807 5.81363 0.36883
lfemur -17.4017 24.6737 -28.9211
ltibia 36.9351 0 0
lfoot -37.114 12.3006 0
ltoes 20.3595 0 0
rfemur -62.6914 -30.2631 36.2973
rtibia 67.9832 0 0
rfoot -8.34533 -3.94159 0
rtoes 2.98849 0 0
lowerback -0.591138 -4.03337 -5.88217
upperback -1.80897 -5.40325 -0.407164
thorax -1.03332 -2.63444 2.85238
lowerneck -9.69647 -7.30093 -0.573404
upperneck 3.11671 -10.1537 7.38745
head 3.18248 -4.7859 1.91621
lclavicle -3.79679e-014 -7.95139e-015 0
lhumerus -44.5367 -71.1192 127.009
lradius 73.1505 0 0
lwrist 24.9573 0 0
lhand -4.93506 3.74556 0
lfingers 7.12502 0 0
lthumb 20.8558 32.6446 0
rclavicle -3.79679e-014 -7.95139e-015 0
rhumerus -41.6572 -5.62375 -76.5216
rradius 60.334 0 0
rwrist -16.2497 0 0
rhand -29.3753 -48.1698 0
rfingers 7.12502 0 0
rthumb -2.71414 -798.132 0
653
root 5.51547 16.2731 -2.31342 17.8934 4.75583 0.368593
lfemur -17.8785 24.6318 -28.4629
ltibia 38.4876 -0 0
lfoot -36.1032 11.5031 -0.320165
ltoes 20.0865 -0 0
rfemur -62.2737 -30.1029 36.2136
rtibia 67.6931 -0 0
rfoot -8.8905 -4.33944 -0.0598053
rtoes 3.27531 -0 0
lowerback -0.578846 -4.08391 -5.82422
upperback -1.81895 -5.47207 -0.42743
thorax -1.05613 -2.66874 2.80407
lowerneck -9.66997 -7.23048 -0.572438
upperneck 2.93713 -10.0444 7.37976
head 3.1227 -4.73932 1.92509
lclavicle -8.91549e-014 -2.06736e-014 0
lhumerus -43.5124 -71.6429 125.725
lradius 73.6818 -0 0
lwrist 25.1448 0 0
lhand -5.01991 3.73205 0.00404143
lfingers 7.12502 -0 0
lthumb 20.774 32.6366 0.00312621
rclavicle -8.91549e-014 -2.06736e-014 0
rhumerus -42.5706 -5.8263 -75.8863
rradius 60.1146 -0 0
rwrist -15.6785 0 0
rhand -29.3203 -48.4483 0.0035984
rfingers 7.12502 -0 0
rthumb -2.66099 -78.4111 0.00347163
654
root 5.50911 16.2766 -2.18795 17.975 3.7188 0.360499
lfemur -18.4428 24.617 -27.9147
ltibia 40.336 -0 0
lfoot -34.9038 10.6224 -0.685103
ltoes 19.8021 -0 0
rfemur -61.7334 -29.8704 36.0691
rtibia 67.3364 -0 0
rfoot -9.48651 -4.67152 -0.111221
rtoes 3.47793 -0 0
lowerback -0.557789 -4.14678 -5.74306
upperback -1.82773 -5.5576 -0.439057
thorax -1.0836 -2.71162 2.75341
lowerneck -9.64159 -7.14715 -0.562708
upperneck 2.78535 -9.91937 7.34504
head 3.06825 -4.68468 1.92418
lclavicle -8.91549e-014 -2.06736e-014 0
lhumerus -42.0855 -72.1603 124.005
lradius 74.2954 -0 0
lwrist 25.3505 0 0
lhand -5.1439 3.6925 0.0097203
lfingers 7.12502 -0 0
lthumb 20.6546 32.6058 0.00763014
rclavicle -8.91549e-014 -2.06736e-014 0
rhumerus -43.4041 -6.01957 -75.1405
rradius 60.0517 -0 0
rwrist -15.2071 0 0
rhand -29.2603 -48.6896 0.007059
rfingers 7.12502 -0 0
rthumb -2.60312 -78.6529 0.00680948
655
root 5.50275 16.2801 -2.06248 18.0275 2.70003 0.345793
lfemur -19.0877 24.6285 -27.2824
ltibia 42.4581 -0 0
lfoot -33.527 9.6615 -1.08369
ltoes 19.5082 -0 0
rfemur -61.0799 -29.5688 35.8688
rtibia 66.9192 -0 0
rfoot -10.1278 -4.94199 -0.154498
rtoes 3.60277 -0 0
lowerback -0.528413 -4.22092 -5.64027
upperback -1.83536 -5.65841 -0.442628
thorax -1.11549 -2.76236 2.70056
lowerneck -9.61138 -7.05193 -0.544864
upperneck 2.65967 -9.78004 7.2851
head 3.0188 -4.62263 1.91412
lclavicle -8.91549e-014 -2.06736e-014 0
lhumerus -40.2392 -72.6601 121.83
lradius 74.9836 -0 0
lwrist 25.5724 0 0
lhand -5.3048 3.62845 0.0168306
lfingers 7.12502 -0 0
lthumb 20.4996 32.5538 0.0133426
rclavicle -8.91549e-014 -2.06736e-014 0
rhumerus -44.1607 -6.20173 -74.2917
rradius 60.1366 -0 0
rwrist -14.8298 0 0
rhand -29.1959 -48.895 0.0103804
rfingers 7.12502 -0 0
rthumb -2.5409 -78.8589 0.0100124
656
root 5.49639 16.2836 -1.93701 18.0529 1.69699 0.325609
lfemur -19.8061 24.6658 -26.572
ltibia 44.8314 -0 0
lfoot -31.9842 8.6239 -1.50465
ltoes 19.2064 -0 0
rfemur -60.3231 -29.2015 35.6179
rtibia 66.4474 -0 0
rfoot -10.8087 -5.15501 -0.189773
rtoes 3.65625 -0 0
lowerback -0.491172 -4.30531 -5.51743
upperback -1.8419 -5.77304 -0.438721
thorax -1.15154 -2.82023 2.64567
lowerneck -9.57942 -6.94583 -0.519553
upperneck 2.55835 -9.62766 7.20173
head 2.97407 -4.55379 1.89554
lclavicle -8.91549e-014 -2.06736e-014 0
lhumerus -37.9603 -73.1289 119.191
lradius 75.7387 -0 0
lwrist 25.809 0 0
lhand -5.50037 3.54143 0.0251307
lfingers 7.12502 -0 0
lthumb 20.3112 32.4817 0.0200643
rclavicle -8.91549e-014 -2.06736e-014 0
rhumerus -44.8431 -6.37149 -73.3473
rradius 60.3604 -0 0
rwrist -14.5409 0 0
rhand -29.1274 -49.0661 0.0135528
rfingers 7.12502 -0 0
rthumb -2.47471 -79.0305 0.0130711
657
root 5.49003 16.2871 -1.81154 18.0531 0.707146 0.300982
lfemur -20.5911 24.728 -25.7895
ltibia 47.4336 -0 0
lfoot -30.287 7.51322 -1.93676
ltoes 18.8985 -0 0
rfemur -59.4727 -28.7717 35.322
rtibia 65.9272 -0 0
rfoot -11.5237 -5.31479 -0.217107
rtoes 3.64481 -0 0
lowerback -0.44652 -4.39892 -5.37612
upperback -1.84741 -5.90007 -0.42792
thorax -1.1915 -2.88449 2.58891
lowerneck -9.54575 -6.82986 -0.487423
upperneck 2.47968 -9.46347 7.09675
head 2.93373 -4.47881 1.86906
lclavicle -8.91549e-014 -2.06736e-014 0
lhumerus -35.2432 -73.5512 116.081
lradius 76.5527 -0 0
lwrist 26.0586 0 0
lhand -5.72839 3.43296 0.0343525
lfingers 7.12502 -0 0
lthumb 20.0916 32.3909 0.0275733
rclavicle -8.91549e-014 -2.06736e-014 0
rhumerus -45.454 -6.52803 -72.3148
rradius 60.7146 -0 0
rwrist -14.3346 0 0
rhand -29.0551 -49.2042 0.0165599
rfingers 7.12502 -0 0
rthumb -2.40491 -79.1692 0.0159699
